<svg width="601" height="600" viewBox="0 0 601 600" fill="none" xmlns="http://www.w3.org/2000/svg">
<path d="M588.75 480H12.75C6.12258 480 0.75 485.373 0.75 492V588C0.75 594.627 6.12257 600 12.75 600H588.75C595.377 600 600.75 594.627 600.75 588V492C600.75 485.373 595.377 480 588.75 480Z" fill="#FFE697"/>
<path d="M360.75 480H568.67C547.606 516.497 517.302 546.803 480.806 567.869C444.31 588.935 402.909 600.017 360.77 600V480H360.75Z" fill="#FFCF59"/>
<path d="M588.75 240H240.75V348C240.75 354.627 246.123 360 252.75 360H600.75V252C600.75 245.373 595.377 240 588.75 240Z" fill="#AAE7ED"/>
<path d="M108.75 240H12.75C6.12258 240 0.75 245.373 0.75 252V348C0.75 354.627 6.12259 360 12.75 360H108.75C115.377 360 120.75 354.627 120.75 348V252C120.75 245.373 115.377 240 108.75 240Z" fill="#AAE7ED"/>
<path d="M588.75 0H12.75C6.12258 0 0.75 5.37259 0.75 12V108C0.75 114.627 6.12257 120 12.75 120H588.75C595.377 120 600.75 114.627 600.75 108V12C600.75 5.37258 595.377 0 588.75 0Z" fill="#B0BBFF"/>
<path d="M480.75 120H272.86C293.92 83.5021 324.222 53.1953 360.717 32.1295C397.212 11.0637 438.612 -0.0178304 480.75 2.15348e-05V120V120Z" fill="#5168EC"/>
<path d="M480.67 120H480.79V0H588.79C595.417 0 600.79 5.37258 600.79 12V108C600.79 114.627 595.417 120 588.79 120H480.67C448.865 120.032 418.373 132.689 395.895 155.19C373.416 177.69 360.79 208.195 360.79 240H240.79C240.724 197.868 251.801 156.468 272.9 120H480.67Z" fill="#B0BBFF"/>
<path d="M568.67 480H360.75C392.576 480 423.098 467.357 445.603 444.853C468.107 422.348 480.75 391.826 480.75 360H600.75C600.824 402.129 589.757 443.528 568.67 480V480Z" fill="#FFE697"/>
</svg>
