<?xml version="1.0" encoding="utf-8"?>
<!-- Generator: Adobe Illustrator 25.1.0, SVG Export Plug-In . SVG Version: 6.00 Build 0)  -->
<svg version="1.1" id="Layer_1" xmlns="http://www.w3.org/2000/svg" xmlns:xlink="http://www.w3.org/1999/xlink" x="0px" y="0px"
	 viewBox="0 0 32 32" style="enable-background:new 0 0 32 32;" xml:space="preserve">
<style type="text/css">
	.st0{fill:#0364B8;}
	.st1{fill:#0A2767;}
	.st2{fill:#28A8EA;}
	.st3{fill:#0078D4;}
	.st4{fill:#50D9FF;}
	.st5{fill:none;}
	.st6{fill:#064A8C;}
	.st7{opacity:0.5;fill:#0A2767;enable-background:new    ;}
	.st8{fill:#1490DF;}
	.st9{opacity:5.000000e-02;enable-background:new    ;}
	.st10{opacity:0.1;enable-background:new    ;}
	.st11{opacity:0.2;enable-background:new    ;}
	.st12{fill:#FFFFFF;}
	.st13{fill:#A01D21;}
	.st14{font-family:'Calibri-Bold';}
	.st15{font-size:5px;}
</style>
<path class="st0" d="M28.6,2H11.4C10.6,2,10,2.6,10,3.4c0,0,0,0,0,0V5l9.7,3L30,5V3.4C30,2.6,29.4,2,28.6,2z"/>
<path class="st1" d="M31.6,17.4c0.1-0.5,0.3-0.9,0.4-1.4c0-0.2-0.1-0.5-0.3-0.6v0l0,0l0,0L20.8,9.2c0,0-0.1-0.1-0.1-0.1v0
	c-0.4-0.2-0.9-0.2-1.3,0l0,0c0,0-0.1,0.1-0.1,0.1L8.4,15.4l0,0l0,0v0C8.1,15.5,8,15.8,8,16c0.1,0.5,0.2,0.9,0.4,1.4l11.5,8.4
	L31.6,17.4z"/>
<path class="st2" d="M24,5h-7l-2,3l2,3l7,6h6v-6L24,5z"/>
<path class="st3" d="M10,5h7v6h-7V5z"/>
<path class="st4" d="M24,5h6v6h-6V5z"/>
<path class="st0" d="M24,17l-7-6h-7v6l7,6l10.8,1.8L24,17z"/>
<path class="st5" d="M10,5l20,0"/>
<path class="st3" d="M17,11h7v6h-7V11z"/>
<path class="st6" d="M10,17h7v6h-7V17z"/>
<path class="st3" d="M24,17h6v6h-6V17z"/>
<path class="st7" d="M20.2,25.2L8.4,16.6l0.5-0.9c0,0,10.7,6.1,10.9,6.2c0.1,0.1,0.3,0,0.4,0c0.2-0.1,10.9-6.2,10.9-6.2l0.5,0.9
	L20.2,25.2z"/>
<path class="st8" d="M31.7,16.6L31.7,16.6L31.7,16.6L31.7,16.6l-10.9,6.2c-0.4,0.3-1,0.3-1.5,0.1l3.8,5.1l8.3,1.8l0,0
	c0.4-0.3,0.6-0.7,0.6-1.2V16C32,16.2,31.9,16.5,31.7,16.6z"/>
<path class="st9" d="M32,28.5v-0.7l-10-5.7l-1.2,0.7c-0.4,0.3-1,0.3-1.5,0.1l3.8,5.1l8.3,1.8l0,0C31.8,29.4,32,29,32,28.5z"/>
<path class="st10" d="M32,28.9L21,22.6l-0.2,0.1c-0.4,0.3-1,0.3-1.5,0.1l3.8,5.1l8.3,1.8l0,0C31.7,29.5,31.9,29.2,32,28.9z"/>
<path class="st2" d="M8.4,16.6L8.4,16.6L8.4,16.6L8.4,16.6C8.1,16.4,8,16.2,8,16v12.5C8,29.3,8.7,30,9.5,30c0,0,0,0,0,0h21
	c0.1,0,0.2,0,0.4,0c0.1,0,0.1,0,0.2-0.1c0,0,0,0,0.1,0c0.1,0,0.2-0.1,0.2-0.1c0,0,0,0,0,0L8.4,16.6z"/>
<path class="st10" d="M18,27.9V8.6C18,7.7,17.4,7,16.7,7H10v4.7h0v4.1l-1.7,1.1l0,0l0,0v0C8.1,17.1,8,17.4,8,17.6l0,0l0,0v11.8h8.7
	C17.4,29.4,18,28.7,18,27.9z"/>
<path class="st11" d="M17,27.2V9.4C17,8.6,16.4,8,15.7,8H10v3.3h0V15l-1.7,1l0,0l0,0v0C8.1,16.2,8,16.4,8,16.7l0,0l0,0v11.9h7.7
	C16.4,28.6,17,28,17,27.2z"/>
<path class="st11" d="M17,26.2V9.5C17,8.7,16.4,8,15.7,8H10v3.5h0v4l-1.7,1.1l0,0l0,0v0C8.1,16.8,8,17,8,17.3l0,0l0,0v10.5h7.7
	C16.4,27.8,17,27.1,17,26.2z"/>
<path class="st11" d="M16,23.7V9.3C16,8.6,15.4,8,14.7,8H10v3h0v3.5l-1.7,1l0,0l0,0v0C8.1,15.5,8,15.8,8,16l0,0l0,0v9h6.7
	C15.4,25,16,24.4,16,23.7z"/>
<path class="st3" d="M1.3,8h13.3C15.4,8,16,8.6,16,9.3v13.3c0,0.7-0.6,1.3-1.3,1.3c0,0,0,0,0,0H1.3C0.6,24,0,23.4,0,22.7
	c0,0,0,0,0,0V9.3C0,8.6,0.6,8,1.3,8C1.3,8,1.3,8,1.3,8z"/>
<path class="st12" d="M3.9,13.5c0.4-0.8,0.9-1.4,1.6-1.8C6.3,11.2,7.2,11,8.1,11c0.8,0,1.7,0.2,2.4,0.6c0.7,0.4,1.2,1,1.6,1.7
	c0.4,0.8,0.6,1.7,0.6,2.5c0,0.9-0.2,1.8-0.6,2.7c-0.4,0.7-0.9,1.4-1.6,1.8C9.7,20.8,8.8,21,8,21c-0.9,0-1.7-0.2-2.5-0.6
	c-0.7-0.4-1.3-1-1.6-1.7c-0.4-0.8-0.6-1.6-0.6-2.5C3.3,15.2,3.5,14.3,3.9,13.5z M5.6,17.7c0.2,0.5,0.5,0.9,0.9,1.2
	C7,19.2,7.5,19.4,8,19.4c0.5,0,1.1-0.1,1.5-0.4c0.4-0.3,0.7-0.7,0.9-1.2c0.2-0.5,0.3-1.1,0.3-1.7c0-0.6-0.1-1.1-0.3-1.7
	c-0.2-0.5-0.5-0.9-0.9-1.2c-0.4-0.3-1-0.5-1.5-0.5c-0.5,0-1,0.1-1.5,0.4c-0.4,0.3-0.7,0.7-0.9,1.2C5.2,15.4,5.2,16.6,5.6,17.7
	L5.6,17.7z"/>
<path class="st5" d="M0,0h32v32H0L0,0z"/>
<path class="st13" d="M14.7,27.8H1.3c-0.7,0-1.3-0.6-1.3-1.3v-3.8h16v3.8C16,27.2,15.4,27.8,14.7,27.8z"/>
<rect x="0" y="22.7" class="st5" width="15.9" height="5"/>
<text transform="matrix(1 0 0 1 3.7606 26.913)" class="st12 st14 st15">GCC</text>
</svg>
