<svg id="Logo-Axonaut" xmlns="http://www.w3.org/2000/svg" xmlns:xlink="http://www.w3.org/1999/xlink" width="120.063" height="123.927" viewBox="0 0 120.063 123.927">
  <defs>
    <linearGradient id="linear-gradient" x1="0.5" x2="0.5" y2="1" gradientUnits="objectBoundingBox">
      <stop offset="0" stop-color="#009de0"/>
      <stop offset="0.325" stop-color="#117cc0"/>
      <stop offset="1" stop-color="#117cc0"/>
    </linearGradient>
  </defs>
  <rect id="Rectangle_4531" data-name="Rectangle 4531" width="120.063" height="123.927" rx="32" fill="#fff"/>
  <g id="Groupe_9712" data-name="Groupe 9712" transform="translate(-58.695 -114.908)">
    <g id="Groupe_9714" data-name="Groupe 9714">
      <path id="Tracé_14793" data-name="Tracé 14793" d="M128.183,202.9a27.347,27.347,0,0,0-15.083,50.16,26.582,26.582,0,0,1-8.959-20.138c0-14.275,10.74-25.847,23.989-25.847s23.989,11.572,23.989,25.847a26.545,26.545,0,0,1-9.286,20.416A27.346,27.346,0,0,0,128.183,202.9Z" transform="translate(-7.959 -42.285)" fill="url(#linear-gradient)"/>
      <path id="Tracé_14794" data-name="Tracé 14794" d="M138.459,296.458c-8.435,0-15.825-3.592-19.939-8.977,3.139,6.967,10.88,11.9,19.939,11.9s16.8-4.932,19.939-11.9C154.285,292.866,146.894,296.458,138.459,296.458Z" transform="translate(-18.261 -91.557)" fill="#117cc0"/>
      <path id="Tracé_14795" data-name="Tracé 14795" d="M127.563,243.267a31.855,31.855,0,0,1,8.951-22.423,25.483,25.483,0,0,0,0,44.847A31.855,31.855,0,0,1,127.563,243.267Z" transform="translate(-20.951 -52.74)" fill="#117cc0"/>
      <path id="Tracé_14796" data-name="Tracé 14796" d="M147.251,247.014a31.41,31.41,0,0,1,4.612-22.071,25.031,25.031,0,0,0,6.2,41.856A31.409,31.409,0,0,1,147.251,247.014Z" transform="translate(-32.615 -55.127)" fill="#117cc0"/>
      <g id="Groupe_9712-2" data-name="Groupe 9712" transform="translate(101.498 171.095)">
        <path id="Tracé_14797" data-name="Tracé 14797" d="M156.97,229.111c-.36-.381-.732-.747-1.113-1.1a29.718,29.718,0,0,1-17.931,5.672,30.611,30.611,0,0,1-15.2-3.872q-.643.734-1.234,1.52a27.614,27.614,0,0,0,16.439,5.275A27.143,27.143,0,0,0,156.97,229.111Z" transform="translate(-121.487 -228.008)" fill="#117cc0"/>
      </g>
      <g id="Groupe_9713" data-name="Groupe 9713" transform="translate(96.586 182.856)">
        <path id="Tracé_14798" data-name="Tracé 14798" d="M156.191,256.179a39.055,39.055,0,0,1-45.952.692q-.308,1.168-.516,2.378a35.666,35.666,0,0,0,47.014-.845C156.584,257.651,156.4,256.907,156.191,256.179Z" transform="translate(-109.723 -256.179)" fill="#117cc0"/>
      </g>
    </g>
    <g id="Tracé_14799" data-name="Tracé 14799" transform="translate(-37.253)" fill="#e65857" stroke-miterlimit="10">
      <path d="M 166.2800750732422 196.4536590576172 L 165.099609375 196.4536590576172 L 159.2384948730469 196.4536590576172 L 158.3553314208984 196.4536590576172 L 158.2461700439453 195.5772705078125 L 150.1307830810547 130.4288177490234 L 149.9803314208984 129.2210388183594 L 151.1943511962891 129.3077392578125 L 154.3503570556641 129.5331726074219 L 155.1360168457031 129.5892791748047 L 155.2655029296875 130.3662261962891 L 166.0859985351562 195.2892608642578 L 166.2800750732422 196.4536590576172 Z" stroke="none"/>
      <path d="M 151.1231231689453 130.3051910400391 L 159.2384948730469 195.4536590576172 L 165.099609375 195.4536590576172 L 154.2791137695312 130.5306243896484 L 151.1231231689453 130.3051910400391 M 148.8375549316406 128.1368560791016 L 151.2656097412109 128.3102722167969 L 154.4216156005859 128.5357055664062 L 155.9929351806641 128.64794921875 L 156.2519073486328 130.2018280029297 L 167.0724029541016 195.1248474121094 L 167.4605255126953 197.4536590576172 L 165.099609375 197.4536590576172 L 159.2384948730469 197.4536590576172 L 157.47216796875 197.4536590576172 L 157.2538299560547 195.7008819580078 L 149.1384582519531 130.5524291992188 L 148.8375549316406 128.1368560791016 Z" stroke="none" fill="#fff"/>
    </g>
    <g id="Tracé_14800" data-name="Tracé 14800" transform="translate(-52.848 -94.681)" fill="#e65857" stroke-miterlimit="10">
      <path d="M 182.4928588867188 306.86376953125 L 177.2425689697266 301.0495910644531 L 176.9892883300781 300.7691040039062 L 176.9848175048828 300.3912353515625 L 176.8956756591797 292.8567810058594 L 176.8836975097656 291.8449401855469 L 177.8955993652344 291.8449401855469 L 181.4552307128906 291.8449401855469 L 182.4378356933594 291.8449401855469 L 182.455078125 292.827392578125 L 182.6031494140625 301.2658081054688 L 184.1810302734375 305.8693237304688 L 182.4928588867188 306.86376953125 Z" stroke="none"/>
      <path d="M 177.8955993652344 292.8449401855469 L 177.9847412109375 300.37939453125 L 183.2350463867188 306.1935729980469 L 181.6060638427734 301.4409484863281 L 181.4552307128906 292.8449401855469 L 177.8955993652344 292.8449401855469 M 175.8717956542969 290.8449401855469 L 177.8955993652344 290.8449401855469 L 181.4552307128906 290.8449401855469 L 183.4204406738281 290.8449401855469 L 183.4549255371094 292.8098449707031 L 183.6002197265625 301.0906677246094 L 185.1269989013672 305.5451049804688 L 188.291259765625 314.7770080566406 L 181.7506866455078 307.5339660644531 L 176.5003814697266 301.7197875976562 L 175.9938201904297 301.1588439941406 L 175.9848785400391 300.4030456542969 L 175.8957366943359 292.8685913085938 L 175.8717956542969 290.8449401855469 Z" stroke="none" fill="#fff"/>
    </g>
    <path id="Tracé_14801" data-name="Tracé 14801" d="M98.678,321.694s-11.174,3.955-4.443,6.84,23.845,1.539,32.307-2.308,20.378-2.249,23.839-.9c0,0-10.763-.443-19.993,3.4s-26.923,9.038-37.114,5S86.179,322.271,98.678,321.694Z" transform="translate(0 -111.486)" fill="#e65857"/>
  </g>
</svg>
